<svg xmlns="http://www.w3.org/2000/svg" viewBox="0 0 448 512"><!-- Font Awesome Pro 6.0.0 by @fontawesome - https://fontawesome.com License - https://fontawesome.com/license (Commercial License) Copyright 2023 Fonticons, Inc. --><path d="M400 32H48C21.5 32 0 53.5 0 80v352c0 26.5 21.5 48 48 48h352c26.5 0 48-21.5 48-48V80c0-26.5-21.5-48-48-48zM277.3 415.7c-8.4 1.5-11.5-3.7-11.5-8 0-5.4.2-33 .2-55.3 0-15.6-5.2-25.5-11.3-30.7 37-4.1 76-9.2 76-73.1 0-18.2-6.5-27.3-17.1-39 1.7-4.3 7.4-22-1.7-45-13.9-4.3-45.7 17.9-45.7 17.9-13.2-3.7-27.5-5.6-41.6-5.6-14.1 0-28.4 1.9-41.6 5.6 0 0-31.8-22.2-45.7-17.9-9.1 22.9-3.5 40.6-1.7 45-10.6 11.7-15.6 20.8-15.6 39 0 63.6 37.3 69 74.3 73.1-5.2 4.5-9.9 12.3-11.5 23.8-10.3 4.7-36.7 12.7-52.9-15.1-9.9-17.1-28-18.4-28-18.4-17.9-.2-1.2 11.2-1.2 11.2 11.9 5.5 20.3 26.8 20.3 26.8 10.8 32.4 62 21.5 62 21.5 0 15.1-.2 29.6-.2 33.7 0 4.3-3 9.5-11.5 8-66-22.1-112.2-84.9-112.2-158.3 0-91.8 70.2-161.5 162-161.5S388 165.6 388 257.4c.1 73.4-44.7 136.3-110.7 158.3zm-98.1-61.1c-1.9.4-3.7-.4-3.9-1.7-.2-1.5 1.1-2.8 3-3.2 1.9-.2 3.7.6 3.9 1.9.3 1.3-1 2.6-3 3zm-9.5-.9c0-1.3 1.5-2.4 3.4-2.4 1.9 0 3.4 1.1 3.4 2.4 0 1.3-1.5 2.4-3.4 2.4-1.9 0-3.4-1.1-3.4-2.4zm-13.7-1.1c-.4-1.3 1.1-2.8 3-3.2 1.9-.4 3.7.4 4.1 1.7.4 1.3-1.1 2.8-3 3.2-1.9.4-3.7-.4-4.1-1.7zm-12.3-5.4c-.9-1.1-.2-2.8 1.5-3.7 1.7-.9 3.7-.2 4.6.9.9 1.1.2 2.8-1.5 3.7-1.7.9-3.7.2-4.6-.9zm-9.1-9.1c-.9-.6-.9-2.4 0-3.9 .9-1.5 2.8-2.2 3.7-1.5.9.6.9 2.4 0 3.9-.9 1.5-2.8 2.2-3.7 1.5zm-6.5-9.7c-.9-.9-.4-2.2 1.1-3 1.3-.9 3-.4 3.7.4.9.9.4 2.2-1.1 3-1.3.9-3 .4-3.7-.4zm-6.7-7.4c-.4-.9.6-1.9 2.2-2.2 1.5-.4 2.8.2 3.2 1.1.4.9-.6 1.9-2.2 2.2-1.5.4-2.8-.2-3.2-1.1z"/></svg>
